# xmcd
#
# Track frame offsets:
#	150
#	13437
#	22950
#	34927
#	72075
#	91272
#	113245
#	131820
#	149675
#	168520
#	188332
#	199380
#	225517
#	242202
#	250297
#	265690
#	283230
#	298040
#
# Disc length: 4212 seconds
#
# Revision: 2
# Processed by: cddbd v1.5.1PL2 Copyright (c) Steve Scherf et al.
# Submitted via: audiograbber 1.83.01
#
DISCID=11107212
DTITLE=Janis Joplin - 18 Essential Songs
DYEAR=1995
DGENRE=Rock
TTITLE0=Trouble In Mind
TTITLE1=Down On Me
TTITLE2=Bye, Bye Baby
TTITLE3=Ball And Chain
TTITLE4=Piece Of My Heart
TTITLE5=I Need A Man To Love
TTITLE6=Summertime
TTITLE7=Try (Just A Little Bit Harder)
TTITLE8=One Good Man
TTITLE9=Kozmic Blues
TTITLE10=Raise Your Hand
TTITLE11=Tell Mama
TTITLE12=Move Over
TTITLE13=Mercedes Benz
TTITLE14=Get It While You Can
TTITLE15=Half Moon
TTITLE16=Trust Me
TTITLE17=Me And Bobby McGee
EXTD=
EXTT0=
EXTT1=
EXTT2=
EXTT3=
EXTT4=
EXTT5=
EXTT6=
EXTT7=
EXTT8=
EXTT9=
EXTT10=
EXTT11=
EXTT12=
EXTT13=
EXTT14=
EXTT15=
EXTT16=
EXTT17=
PLAYORDER=
